<svg xmlns="http://www.w3.org/2000/svg" viewBox="0 0 32 32" width="32" height="32">
  <!-- Background circle -->
  <circle cx="16" cy="16" r="16" fill="#f97316"/>
  
  <!-- Cooking pot -->
  <g fill="white">
    <!-- Pot body -->
    <rect x="9" y="14" width="14" height="10" rx="2" fill="white"/>
    
    <!-- Pot rim -->
    <rect x="8" y="13" width="16" height="2" rx="1" fill="white"/>
    
    <!-- Handle left -->
    <path d="M7 16 Q5 16 5 18 Q5 20 7 20" stroke="white" stroke-width="1.5" fill="none"/>
    
    <!-- Handle right -->
    <path d="M25 16 Q27 16 27 18 Q27 20 25 20" stroke="white" stroke-width="1.5" fill="none"/>
    
    <!-- Lid knob -->
    <circle cx="16" cy="11" r="1.5" fill="white"/>
    
    <!-- Lid -->
    <ellipse cx="16" cy="12" rx="6" ry="1.5" fill="white"/>
    
    <!-- Steam -->
    <g stroke="white" stroke-width="1" fill="none" opacity="0.7">
      <path d="M13 9 Q13 7 14 7 Q15 7 15 9"/>
      <path d="M16 8 Q16 6 17 6 Q18 6 18 8"/>
      <path d="M19 9 Q19 7 20 7 Q21 7 21 9"/>
    </g>
  </g>
</svg>